<!-- Generated by IcoMoon.io -->
<svg version="1.1" xmlns="http://www.w3.org/2000/svg" width="263" height="250" viewBox="0 0 163 55">
<title>logo</title>
<path fill="#195ea0" d="M118.493 8.502c-9.322 0-16.888 7.607-16.888 17.046 0 6.201 3.316 11.625 8.229 14.626h17.279c4.953-2.963 8.229-8.387 8.229-14.626 0.038-9.439-7.528-17.046-16.85-17.046zM125.162 33.934h-13.691c-2.458-1.99-3.706-4.29-3.706-8.893 0-5.695 4.72-10.298 10.727-10.298 6.318 0 10.727 4.603 10.727 10.298 0 3.744-1.093 7.098-4.056 8.893z"></path>
<path fill="#195ea0" d="M51.794 4.173c0 2.262-1.833 4.094-4.094 4.094s-4.094-1.833-4.094-4.094c0-2.262 1.833-4.094 4.094-4.094s4.094 1.833 4.094 4.094z"></path>
<path fill="#404041" d="M-0.002 40.135v-25.275c0 0 4.173-2.574 10.415-2.574s8.621 3.433 8.621 3.433c3.744-3.042 8.036-3.2 10.649-3.004 7.177 0.546 8.308 7.060 8.27 6.981v20.4h-6.397v-18.527c0 0-0.702-3.706-4.407-3.706s-5.149 2.341-5.149 2.341v19.933h-6.359v-19.816c0 0-3.121-5.421-9.401-1.444v21.257h-6.242z"></path>
<path fill="#404041" d="M146.029 40.29h-6.318v-25.237c0 0 4.214-2.536 10.532-2.536 7.060 0 12.014 3.316 11.975 8.074l-0.234 19.737h-6.476v-19.854c0 0-3.276-5.772-9.594-1.794l0.117 21.608z"></path>
<path fill="#404041" d="M90.915 40.29h-6.242v-25.237c0 0 3.393-2.536 9.635-2.536 2.613 0 4.681 0.585 6.201 1.286l-2.536 4.486c-1.833-0.585-4.056-1.014-7.098 0.742v21.257h0.038z"></path>
<path fill="#404041" d="M57.177 0h6.397v25.196l10.491-12.872h6.359l-10.727 13.77 10.883 14.237h-6.359l-10.649-14.042v13.887h-6.397v-40.175z"></path>
<path fill="#404041" d="M44.5 12.675h6.397v27.42h-6.397v-27.42z"></path>
<path fill="#195ea0" d="M45.827 47.663c0 0.079 0 0.155 0 0.234s-0.038 0.117-0.038 0.155c0 0.038-0.038 0.079-0.079 0.079s-0.038 0.038-0.079 0.038h-2.028v4.953c0 0.038 0 0.038-0.038 0.079s-0.038 0.038-0.117 0.079c-0.038 0-0.117 0.038-0.196 0.038s-0.196 0-0.313 0c-0.117 0-0.234 0-0.313 0s-0.155-0.038-0.196-0.038c-0.038 0-0.079-0.038-0.117-0.079s-0.038-0.038-0.038-0.079v-5.578c0-0.117 0.038-0.234 0.117-0.313s0.155-0.079 0.272-0.079h2.925c0.079 0 0.117 0.038 0.155 0.117 0.079 0.079 0.079 0.196 0.079 0.389v0zM50.196 50.98c0 0.389-0.038 0.702-0.117 1.014s-0.196 0.546-0.351 0.78c-0.155 0.196-0.351 0.389-0.585 0.508s-0.508 0.155-0.78 0.155c-0.117 0-0.234 0-0.351-0.038s-0.196-0.079-0.313-0.117c-0.079-0.038-0.196-0.117-0.272-0.196s-0.196-0.155-0.313-0.272v1.99c0 0.038 0 0.079-0.038 0.079 0 0.038-0.038 0.038-0.079 0.079-0.038 0-0.117 0.038-0.196 0.038s-0.155 0-0.272 0c-0.117 0-0.196 0-0.272 0s-0.117-0.038-0.196-0.038c-0.038 0-0.079-0.038-0.079-0.079s-0.038-0.038-0.038-0.079v-5.929c0-0.038 0-0.038 0.038-0.079 0-0.038 0.038-0.038 0.079-0.079 0.038 0 0.079-0.038 0.155-0.038s0.155 0 0.234 0c0.079 0 0.155 0 0.234 0s0.117 0.038 0.155 0.038c0.038 0 0.079 0.038 0.079 0.079s0.038 0.038 0.038 0.079v0.508c0.117-0.117 0.234-0.234 0.351-0.351 0.117-0.079 0.234-0.196 0.351-0.234 0.117-0.079 0.234-0.117 0.389-0.155 0.117-0.038 0.272-0.038 0.429-0.038 0.313 0 0.585 0.079 0.78 0.196 0.234 0.117 0.389 0.272 0.546 0.508 0.155 0.196 0.234 0.468 0.313 0.742 0.038 0.313 0.079 0.585 0.079 0.935v0zM48.948 51.056c0-0.196 0-0.351-0.038-0.508s-0.079-0.313-0.155-0.429c-0.079-0.117-0.155-0.234-0.272-0.313s-0.234-0.117-0.389-0.117c-0.079 0-0.155 0-0.234 0.038s-0.155 0.079-0.234 0.117c-0.079 0.038-0.155 0.117-0.234 0.196s-0.196 0.196-0.272 0.313v1.405c0.155 0.196 0.313 0.389 0.468 0.508s0.313 0.155 0.468 0.155c0.155 0 0.272-0.038 0.389-0.117s0.196-0.196 0.272-0.313c0.079-0.117 0.117-0.272 0.155-0.429 0.079-0.196 0.079-0.351 0.079-0.508v0zM53.51 53.318l-0.508 1.482c-0.038 0.079-0.117 0.117-0.234 0.155s-0.313 0.038-0.546 0.038c-0.117 0-0.234 0-0.313 0s-0.117-0.038-0.155-0.038c-0.038-0.038-0.038-0.038-0.079-0.079 0-0.038 0-0.079 0.038-0.155l0.546-1.405c-0.038 0-0.079-0.038-0.117-0.079s-0.038-0.079-0.079-0.117l-1.444-3.901c-0.038-0.117-0.079-0.196-0.079-0.272 0-0.038 0-0.117 0.038-0.155s0.117-0.038 0.196-0.079c0.079 0 0.196 0 0.351 0 0.117 0 0.234 0 0.313 0s0.155 0 0.196 0.038c0.038 0 0.079 0.038 0.117 0.079s0.038 0.079 0.079 0.155l1.014 2.847 0.897-2.887c0-0.079 0.038-0.155 0.079-0.155 0.038-0.038 0.079-0.038 0.155-0.038s0.196 0 0.351 0c0.155 0 0.234 0 0.351 0 0.079 0 0.155 0.038 0.196 0.079s0.079 0.079 0.079 0.155c0 0.038 0 0.117-0.038 0.196l-1.405 4.135zM59.635 53.125c0 0.038 0 0.038-0.038 0.079 0 0.038-0.038 0.038-0.079 0.079-0.038 0-0.117 0.038-0.196 0.038s-0.155 0-0.272 0c-0.117 0-0.196 0-0.272 0s-0.155-0.038-0.196-0.038c-0.038 0-0.079-0.038-0.079-0.079s-0.038-0.038-0.038-0.079v-3.393h-1.599v3.393c0 0.038 0 0.038-0.038 0.079s-0.038 0.038-0.117 0.079c-0.038 0-0.117 0.038-0.196 0.038s-0.155 0-0.272 0c-0.117 0-0.196 0-0.272 0s-0.117-0.038-0.196-0.038c-0.038 0-0.079-0.038-0.079-0.079s-0.038-0.038-0.038-0.079v-4.018c0-0.117 0.038-0.234 0.079-0.272 0.038-0.079 0.155-0.079 0.234-0.079h3.316c0.117 0 0.196 0.038 0.234 0.079 0.038 0.079 0.079 0.155 0.079 0.272v4.018h0.038zM64.822 53.125c0 0.038 0 0.038-0.038 0.079 0 0.038-0.038 0.038-0.079 0.079-0.038 0-0.117 0.038-0.196 0.038s-0.155 0-0.272 0c-0.117 0-0.196 0-0.272 0s-0.155-0.038-0.196-0.038c-0.038 0-0.079-0.038-0.079-0.079s-0.038-0.038-0.038-0.079v-3.393h-1.599v3.393c0 0.038 0 0.038-0.038 0.079s-0.038 0.038-0.117 0.079c-0.038 0-0.117 0.038-0.196 0.038s-0.155 0-0.272 0c-0.117 0-0.196 0-0.272 0s-0.117-0.038-0.196-0.038c-0.038 0-0.079-0.038-0.079-0.079s-0.038-0.038-0.038-0.079v-4.018c0-0.117 0.038-0.234 0.079-0.272 0.038-0.079 0.155-0.079 0.234-0.079h3.316c0.117 0 0.196 0.038 0.234 0.079 0.038 0.079 0.079 0.155 0.079 0.272v4.018h0.038zM69.658 53.163c0 0.038 0 0.079-0.038 0.117s-0.079 0.038-0.155 0.038c-0.079 0-0.155 0-0.313 0s-0.234 0-0.313 0c-0.079 0-0.117-0.038-0.155-0.038-0.038-0.038-0.038-0.079-0.038-0.117v-0.351c-0.155 0.196-0.389 0.313-0.585 0.429-0.234 0.117-0.468 0.155-0.742 0.155-0.234 0-0.429-0.038-0.625-0.079s-0.351-0.155-0.468-0.272c-0.155-0.117-0.234-0.272-0.313-0.429s-0.117-0.389-0.117-0.585c0-0.234 0.038-0.468 0.155-0.625 0.079-0.196 0.234-0.351 0.429-0.468s0.429-0.196 0.702-0.272c0.272-0.038 0.625-0.079 0.976-0.079h0.429v-0.272c0-0.117 0-0.234-0.038-0.351s-0.079-0.196-0.117-0.234c-0.079-0.079-0.155-0.117-0.234-0.155-0.117-0.038-0.234-0.038-0.389-0.038-0.196 0-0.389 0.038-0.546 0.079s-0.313 0.079-0.429 0.155c-0.117 0.038-0.234 0.117-0.313 0.155s-0.155 0.079-0.196 0.079c-0.038 0-0.079 0-0.079-0.038-0.038-0.038-0.038-0.038-0.079-0.079 0-0.038-0.038-0.079-0.038-0.155s0-0.117 0-0.196 0-0.196 0.038-0.234c0-0.038 0.038-0.117 0.079-0.155s0.117-0.079 0.234-0.155c0.117-0.038 0.234-0.117 0.389-0.155s0.313-0.079 0.468-0.117c0.196-0.038 0.351-0.038 0.546-0.038 0.313 0 0.625 0.038 0.859 0.079 0.234 0.079 0.429 0.155 0.585 0.313 0.155 0.117 0.272 0.313 0.351 0.508s0.117 0.468 0.117 0.742v2.847h-0.038zM68.449 51.33h-0.468c-0.196 0-0.351 0-0.508 0.038-0.117 0.038-0.234 0.079-0.351 0.117-0.079 0.038-0.155 0.117-0.196 0.196s-0.079 0.155-0.079 0.272c0 0.196 0.038 0.313 0.155 0.429s0.272 0.155 0.468 0.155c0.155 0 0.313-0.038 0.468-0.117s0.272-0.196 0.429-0.389v-0.702h0.079zM76.991 53.201c0 0.038 0 0.038-0.038 0.079 0 0-0.038 0.038-0.079 0.038s-0.117 0-0.196 0.038c-0.079 0-0.155 0-0.272 0s-0.234 0-0.313 0c-0.079 0-0.155 0-0.196-0.038-0.038 0-0.079-0.038-0.117-0.038-0.038-0.038-0.038-0.038-0.038-0.079l-0.389-1.014c-0.038-0.117-0.117-0.234-0.155-0.351-0.038-0.079-0.117-0.155-0.196-0.234-0.079-0.038-0.155-0.079-0.234-0.117s-0.196-0.038-0.313-0.038h-0.234v1.716c0 0.038 0 0.038-0.038 0.079s-0.038 0.038-0.117 0.038c-0.038 0-0.117 0.038-0.196 0.038s-0.155 0-0.272 0c-0.117 0-0.196 0-0.272 0s-0.155-0.038-0.196-0.038c-0.038 0-0.079-0.038-0.117-0.038-0.038-0.038-0.038-0.038-0.038-0.079v-4.29c0-0.038 0-0.038 0.038-0.079s0.038-0.038 0.117-0.038c0.038 0 0.117-0.038 0.196-0.038s0.155 0 0.272 0c0.117 0 0.196 0 0.272 0s0.155 0 0.196 0.038c0.038 0 0.079 0.038 0.117 0.038 0.038 0.038 0.038 0.038 0.038 0.079v1.639h0.234c0.117 0 0.196 0 0.272-0.038s0.155-0.079 0.234-0.117c0.079-0.038 0.117-0.117 0.196-0.234 0.038-0.079 0.117-0.196 0.155-0.351l0.351-0.897c0-0.038 0.038-0.038 0.038-0.079 0.038-0.038 0.038-0.038 0.117-0.038 0.038 0 0.117-0.038 0.196-0.038s0.196 0 0.313 0c0.117 0 0.196 0 0.272 0s0.117 0 0.155 0.038c0.038 0 0.079 0.038 0.079 0.038s0.038 0.038 0.038 0.079c0 0.038 0 0.079 0 0.117s-0.038 0.117-0.079 0.196l-0.351 0.818c-0.079 0.155-0.117 0.313-0.196 0.429s-0.155 0.196-0.234 0.272c-0.079 0.079-0.155 0.117-0.234 0.155s-0.155 0.079-0.234 0.117v0c0.079 0.038 0.196 0.079 0.272 0.117s0.155 0.117 0.234 0.196c0.079 0.079 0.155 0.155 0.234 0.272s0.155 0.234 0.196 0.389l0.429 0.935c0 0.038 0.038 0.079 0.038 0.117s0 0.038 0.038 0.079c0 0.038 0 0.038 0 0.079 0 0 0 0 0 0.038v0zM81.946 50.98c0 0.351-0.038 0.702-0.155 0.976-0.079 0.313-0.234 0.546-0.429 0.78s-0.429 0.389-0.742 0.508c-0.272 0.117-0.625 0.155-1.014 0.155s-0.702-0.038-0.976-0.155c-0.272-0.117-0.508-0.272-0.702-0.468s-0.313-0.429-0.389-0.742c-0.079-0.272-0.117-0.625-0.117-1.014 0-0.351 0.038-0.702 0.155-0.976 0.079-0.313 0.234-0.546 0.429-0.78 0.196-0.196 0.429-0.389 0.742-0.508 0.272-0.117 0.625-0.155 1.014-0.155s0.702 0.038 0.976 0.155c0.272 0.117 0.508 0.272 0.702 0.468s0.313 0.429 0.389 0.742c0.079 0.313 0.117 0.625 0.117 1.014v0zM80.696 51.018c0-0.196 0-0.389-0.038-0.585s-0.079-0.313-0.155-0.468c-0.079-0.117-0.196-0.234-0.313-0.313s-0.313-0.117-0.508-0.117c-0.196 0-0.351 0.038-0.468 0.079-0.117 0.079-0.234 0.155-0.313 0.272s-0.155 0.272-0.196 0.468c-0.038 0.196-0.079 0.389-0.079 0.585s0 0.389 0.038 0.585c0.038 0.196 0.079 0.313 0.155 0.468 0.079 0.117 0.196 0.234 0.313 0.313s0.313 0.117 0.508 0.117c0.196 0 0.351-0.038 0.468-0.079 0.117-0.079 0.234-0.155 0.313-0.272s0.155-0.272 0.196-0.468c0.079-0.155 0.079-0.351 0.079-0.585v0zM88.849 53.125c0 0.079-0.038 0.117-0.117 0.155s-0.234 0.038-0.429 0.038c-0.117 0-0.234 0-0.313 0s-0.117 0-0.155-0.038c-0.038 0-0.079-0.038-0.079-0.038 0-0.038-0.038-0.038-0.038-0.079l-0.234-2.262c0-0.079 0-0.155-0.038-0.272 0-0.117 0-0.196-0.038-0.313 0-0.117 0-0.196-0.038-0.313 0-0.117 0-0.196-0.038-0.272v-0.117c-0.038 0.079-0.038 0.196-0.079 0.272-0.038 0.117-0.038 0.196-0.079 0.313s-0.079 0.196-0.079 0.313c-0.038 0.117-0.038 0.196-0.079 0.272l-0.742 2.341c0 0.038-0.038 0.079-0.038 0.117-0.038 0.038-0.079 0.038-0.117 0.079-0.038 0-0.117 0.038-0.196 0.038s-0.155 0-0.272 0c-0.079 0-0.196 0-0.234 0-0.079 0-0.117-0.038-0.155-0.038s-0.079-0.038-0.117-0.079c-0.038-0.038-0.038-0.079-0.038-0.117l-0.742-2.341c-0.038-0.079-0.038-0.155-0.079-0.272s-0.079-0.196-0.079-0.313c-0.038-0.117-0.038-0.196-0.079-0.313s-0.038-0.196-0.079-0.272v0.117c0 0.079 0 0.155 0 0.272s0 0.196-0.038 0.313c0 0.117 0 0.196-0.038 0.313 0 0.117 0 0.196-0.038 0.272l-0.234 2.262c0 0.038 0 0.079-0.038 0.117 0 0.038-0.038 0.038-0.079 0.079-0.038 0-0.117 0.038-0.196 0.038s-0.196 0-0.313 0c-0.117 0-0.196 0-0.272 0s-0.117 0-0.155-0.038c-0.038 0-0.079-0.038-0.079-0.079s0-0.079 0-0.117l0.429-3.978c0-0.117 0.079-0.234 0.117-0.313 0.079-0.079 0.196-0.117 0.351-0.117h0.585c0.117 0 0.234 0 0.313 0.038 0.079 0 0.155 0.038 0.234 0.117 0.079 0.038 0.117 0.117 0.155 0.196s0.079 0.196 0.117 0.313l0.468 1.444c0.038 0.079 0.038 0.196 0.079 0.313s0.038 0.196 0.079 0.313c0.038 0.117 0.038 0.196 0.079 0.313 0.038 0.079 0.038 0.196 0.079 0.272v0c0-0.079 0.038-0.196 0.079-0.272 0.038-0.117 0.038-0.196 0.079-0.313s0.038-0.196 0.079-0.313c0.038-0.117 0.038-0.196 0.079-0.272l0.468-1.444c0.038-0.117 0.079-0.196 0.117-0.272s0.079-0.155 0.155-0.196c0.079-0.038 0.117-0.079 0.234-0.117 0.079-0.038 0.196-0.038 0.313-0.038h0.585c0.155 0 0.272 0.038 0.351 0.117s0.117 0.155 0.117 0.313l0.546 3.861zM93.802 53.125c0 0.038 0 0.038-0.038 0.079 0 0.038-0.038 0.038-0.079 0.079-0.038 0-0.117 0.038-0.196 0.038s-0.155 0-0.272 0c-0.117 0-0.196 0-0.272 0s-0.155-0.038-0.196-0.038c-0.038 0-0.079-0.038-0.079-0.079s-0.038-0.038-0.038-0.079v-3.393h-1.599v3.393c0 0.038 0 0.038-0.038 0.079s-0.038 0.038-0.117 0.079c-0.038 0-0.117 0.038-0.196 0.038s-0.155 0-0.272 0-0.196 0-0.272 0-0.117-0.038-0.196-0.038c-0.038 0-0.079-0.038-0.079-0.079s-0.038-0.038-0.038-0.079v-4.018c0-0.117 0.038-0.234 0.079-0.272 0.038-0.079 0.155-0.079 0.234-0.079h3.316c0.117 0 0.196 0.038 0.234 0.079 0.038 0.079 0.079 0.155 0.079 0.272v4.018h0.038zM98.601 53.163c0 0.038 0 0.079-0.038 0.117s-0.079 0.038-0.155 0.038c-0.079 0-0.155 0-0.313 0s-0.234 0-0.313 0c-0.079 0-0.117-0.038-0.155-0.038-0.038-0.038-0.038-0.079-0.038-0.117v-0.351c-0.155 0.196-0.389 0.313-0.585 0.429-0.234 0.117-0.468 0.155-0.742 0.155-0.234 0-0.429-0.038-0.625-0.079s-0.351-0.155-0.468-0.272c-0.155-0.117-0.234-0.272-0.313-0.429s-0.117-0.389-0.117-0.585c0-0.234 0.038-0.468 0.155-0.625 0.079-0.196 0.234-0.351 0.429-0.468s0.429-0.196 0.702-0.272c0.272-0.038 0.625-0.079 0.976-0.079h0.429v-0.272c0-0.117 0-0.234-0.038-0.351s-0.079-0.196-0.117-0.234c-0.079-0.079-0.155-0.117-0.234-0.155-0.117-0.038-0.234-0.038-0.389-0.038-0.196 0-0.389 0.038-0.546 0.079s-0.313 0.079-0.429 0.155c-0.117 0.038-0.234 0.117-0.313 0.155s-0.155 0.079-0.196 0.079c-0.038 0-0.079 0-0.079-0.038-0.038-0.038-0.038-0.038-0.079-0.079 0-0.038-0.038-0.079-0.038-0.155s0-0.117 0-0.196 0-0.196 0.038-0.234c0-0.038 0.038-0.117 0.079-0.155s0.117-0.079 0.234-0.155c0.117-0.038 0.234-0.117 0.389-0.155s0.313-0.079 0.468-0.117c0.196-0.038 0.351-0.038 0.546-0.038 0.313 0 0.625 0.038 0.859 0.079 0.234 0.079 0.429 0.155 0.585 0.313 0.155 0.117 0.272 0.313 0.351 0.508s0.117 0.468 0.117 0.742v2.847h-0.038zM97.429 51.33h-0.468c-0.196 0-0.351 0-0.508 0.038-0.117 0.038-0.234 0.079-0.351 0.117-0.079 0.038-0.155 0.117-0.196 0.196s-0.079 0.155-0.079 0.272c0 0.196 0.038 0.313 0.155 0.429s0.272 0.155 0.468 0.155c0.155 0 0.313-0.038 0.468-0.117s0.272-0.196 0.429-0.389v-0.702h0.079zM103.905 53.125c0 0.038 0 0.038-0.038 0.079 0 0.038-0.038 0.038-0.079 0.079-0.038 0-0.117 0.038-0.196 0.038s-0.155 0-0.272 0c-0.117 0-0.234 0-0.313 0s-0.155-0.038-0.196-0.038c-0.038 0-0.079-0.038-0.079-0.079-0.038-0.038-0.038-0.038-0.038-0.079v-1.677h-1.716v1.677c0 0.038 0 0.038-0.038 0.079 0 0.038-0.038 0.038-0.079 0.079-0.038 0-0.117 0.038-0.196 0.038s-0.155 0-0.272 0c-0.117 0-0.196 0-0.272 0s-0.117-0.038-0.196-0.038c-0.038 0-0.079-0.038-0.079-0.079s-0.038-0.038-0.038-0.079v-4.252c0-0.038 0-0.038 0.038-0.079 0-0.038 0.038-0.038 0.079-0.079 0.038 0 0.117-0.038 0.196-0.038s0.155 0 0.272 0c0.117 0 0.196 0 0.272 0s0.117 0.038 0.196 0.038c0.038 0 0.079 0.038 0.079 0.079s0.038 0.038 0.038 0.079v1.599h1.716v-1.599c0-0.038 0-0.038 0.038-0.079 0-0.038 0.038-0.038 0.079-0.079 0.038 0 0.117-0.038 0.196-0.038s0.155 0 0.313 0c0.117 0 0.196 0 0.272 0s0.155 0.038 0.196 0.038c0.038 0 0.079 0.038 0.079 0.079s0.038 0.038 0.038 0.079v4.252zM109.288 53.163c0 0.038 0 0.038-0.038 0.079 0 0.038-0.038 0.038-0.079 0.038s-0.117 0.038-0.196 0.038c-0.079 0-0.155 0-0.272 0s-0.196 0-0.272 0c-0.079 0-0.155 0-0.196-0.038-0.038 0-0.079-0.038-0.117-0.038-0.038-0.038-0.038-0.038-0.038-0.079v-1.873c0-0.117 0-0.272 0-0.429s0.038-0.272 0.038-0.429c-0.079 0.117-0.155 0.272-0.234 0.389s-0.196 0.272-0.272 0.389l-1.444 1.949c-0.038 0.038-0.038 0.079-0.079 0.079-0.038 0.038-0.038 0.038-0.079 0.038s-0.079 0.038-0.155 0.038c-0.079 0-0.155 0-0.234 0-0.117 0-0.196 0-0.272 0s-0.117 0-0.155-0.038c-0.038 0-0.079-0.038-0.079-0.038 0-0.038-0.038-0.038-0.038-0.079v-4.252c0-0.038 0-0.038 0.038-0.079 0-0.038 0.038-0.038 0.079-0.079 0.038 0 0.117-0.038 0.196-0.038s0.155 0 0.272 0c0.234 0 0.389 0 0.468 0.038s0.155 0.079 0.155 0.155v1.873c0 0.117 0 0.272 0 0.389 0 0.155-0.038 0.272-0.038 0.389 0.079-0.117 0.155-0.234 0.234-0.389 0.079-0.117 0.155-0.234 0.234-0.351l1.444-1.949c0.038-0.038 0.038-0.079 0.079-0.079 0.038-0.038 0.079-0.038 0.117-0.038s0.079-0.038 0.155-0.038c0.079 0 0.155 0 0.234 0 0.117 0 0.196 0 0.272 0s0.117 0 0.155 0.038c0.038 0 0.079 0.038 0.079 0.079s0.038 0.038 0.038 0.079v4.252z"></path>
<path fill="#195ea0" d="M114.709 53.163c0 0.038 0 0.038-0.038 0.079 0 0.038-0.038 0.038-0.079 0.038s-0.117 0.038-0.196 0.038c-0.079 0-0.155 0-0.272 0s-0.196 0-0.272 0c-0.079 0-0.155 0-0.196-0.038-0.038 0-0.079-0.038-0.117-0.038-0.038-0.038-0.038-0.038-0.038-0.079v-1.873c0-0.117 0-0.272 0-0.429s0.038-0.272 0.038-0.429c-0.079 0.117-0.155 0.272-0.234 0.389s-0.196 0.272-0.272 0.389l-1.444 1.949c-0.038 0.038-0.038 0.079-0.079 0.079-0.038 0.038-0.038 0.038-0.079 0.038s-0.079 0.038-0.155 0.038c-0.079 0-0.155 0-0.234 0-0.117 0-0.196 0-0.272 0s-0.117 0-0.155-0.038c-0.038 0-0.079-0.038-0.079-0.038 0-0.038-0.038-0.038-0.038-0.079v-4.252c0-0.038 0-0.038 0.038-0.079 0-0.038 0.038-0.038 0.079-0.079 0.038 0 0.117-0.038 0.196-0.038s0.155 0 0.272 0c0.234 0 0.389 0 0.468 0.038s0.155 0.079 0.155 0.155v1.873c0 0.117 0 0.272 0 0.389 0 0.155-0.038 0.272-0.038 0.389 0.079-0.117 0.155-0.234 0.234-0.389 0.079-0.117 0.155-0.234 0.234-0.351l1.444-1.949c0.038-0.038 0.038-0.079 0.079-0.079 0.038-0.038 0.079-0.038 0.117-0.038s0.079-0.038 0.155-0.038c0.079 0 0.155 0 0.234 0 0.117 0 0.196 0 0.272 0s0.117 0 0.155 0.038c0.038 0 0.079 0.038 0.079 0.079s0.038 0.038 0.038 0.079v4.252zM114.358 46.883c0 0.196-0.038 0.351-0.079 0.546-0.079 0.155-0.155 0.313-0.272 0.429s-0.313 0.234-0.546 0.313c-0.234 0.079-0.508 0.117-0.818 0.117s-0.585-0.038-0.78-0.117c-0.234-0.079-0.389-0.155-0.546-0.272s-0.234-0.272-0.313-0.429c-0.079-0.155-0.079-0.351-0.079-0.546 0-0.038 0-0.079 0.038-0.117 0-0.038 0.038-0.038 0.079-0.079 0.038 0 0.079-0.038 0.155-0.038s0.155 0 0.272 0c0.117 0 0.196 0 0.234 0 0.079 0 0.117 0.038 0.155 0.038s0.079 0.038 0.079 0.079c0 0.038 0.038 0.079 0.038 0.117 0 0.079 0 0.155 0.038 0.234s0.079 0.117 0.117 0.196c0.079 0.038 0.117 0.079 0.234 0.117 0.079 0.038 0.196 0.038 0.272 0.038 0.117 0 0.196 0 0.272-0.038s0.155-0.079 0.196-0.117c0.038-0.038 0.117-0.117 0.117-0.196 0.038-0.079 0.038-0.155 0.038-0.234 0-0.038 0-0.079 0-0.117s0.038-0.038 0.079-0.079c0.038-0.038 0.079-0.038 0.155-0.038s0.155 0 0.234 0c0.117 0 0.196 0 0.272 0s0.117 0.038 0.196 0.038c0.038 0 0.079 0.038 0.079 0.079 0.079 0 0.079 0.038 0.079 0.079v0zM121.964 52.538c0 0.038 0.038 0.079 0.038 0.079 0 0.038-0.038 0.038-0.038 0.079-0.038 0-0.079 0.038-0.155 0.038s-0.155 0-0.272 0c-0.079 0-0.155 0-0.234 0-0.038 0-0.117 0-0.155-0.038-0.038 0-0.079-0.038-0.079-0.038-0.038 0-0.038-0.038-0.038-0.079l-1.052-1.639c-0.038-0.079-0.079-0.117-0.079-0.196s0.038-0.155 0.079-0.234l0.976-1.56c0-0.038 0.038-0.038 0.038-0.079 0.038-0.038 0.038-0.038 0.079-0.038s0.079 0 0.155-0.038c0.038 0 0.117 0 0.234 0s0.196 0 0.272 0c0.079 0 0.117 0.038 0.155 0.038 0.038 0.038 0.038 0.038 0.038 0.079s0 0.079-0.038 0.117l-0.897 1.677 0.976 1.833zM119.077 50.822l0.935 1.833c0.038 0.038 0.038 0.079 0.038 0.117s0 0.079-0.038 0.079-0.079 0.038-0.155 0.038c-0.079 0-0.155 0-0.272 0-0.079 0-0.155 0-0.234 0-0.038 0-0.117 0-0.155-0.038-0.038 0-0.079-0.038-0.079-0.038-0.038-0.038-0.038-0.038-0.038-0.079l-1.052-1.716c-0.038-0.079-0.079-0.155-0.038-0.196 0-0.079 0.038-0.155 0.079-0.234l1.014-1.639c0-0.038 0.038-0.038 0.079-0.079 0-0.038 0.038-0.038 0.079-0.038s0.079-0.038 0.155-0.038c0.038 0 0.117 0 0.234 0s0.196 0 0.272 0c0.079 0 0.117 0.038 0.155 0.038 0.038 0.038 0.038 0.038 0.038 0.079s0 0.079-0.038 0.117l-0.976 1.794zM130.545 53.125c0 0.038 0 0.079-0.038 0.079 0 0.038-0.038 0.038-0.079 0.079-0.038 0-0.117 0.038-0.196 0.038s-0.155 0-0.272 0c-0.117 0-0.196 0-0.272 0s-0.117-0.038-0.196-0.038c-0.038 0-0.079-0.038-0.079-0.079s-0.038-0.038-0.038-0.079v-4.992l-1.756 4.992c0 0.038-0.038 0.079-0.079 0.117s-0.079 0.038-0.117 0.079c-0.038 0-0.117 0.038-0.196 0.038s-0.155 0-0.272 0c-0.117 0-0.196 0-0.272 0s-0.155-0.038-0.196-0.038c-0.038 0-0.079-0.038-0.117-0.079s-0.038-0.038-0.038-0.079l-1.716-4.992v4.992c0 0.038 0 0.079-0.038 0.079 0 0.038-0.038 0.038-0.079 0.079-0.038 0-0.117 0.038-0.196 0.038s-0.155 0-0.272 0c-0.117 0-0.196 0-0.272 0s-0.155-0.038-0.196-0.038c-0.038 0-0.079-0.038-0.079-0.079s-0.038-0.038-0.038-0.079v-5.462c0-0.155 0.038-0.272 0.117-0.389 0.079-0.079 0.196-0.117 0.351-0.117h0.818c0.155 0 0.272 0 0.389 0.038s0.196 0.079 0.272 0.117c0.079 0.038 0.155 0.117 0.196 0.234 0.038 0.079 0.079 0.196 0.117 0.351l1.327 3.667 1.365-3.667c0.038-0.117 0.079-0.234 0.117-0.351 0.038-0.079 0.117-0.155 0.155-0.234 0.079-0.038 0.155-0.079 0.234-0.117s0.196-0.038 0.313-0.038h0.859c0.079 0 0.155 0 0.234 0.038s0.117 0.038 0.155 0.079c0.038 0.038 0.079 0.079 0.079 0.155 0.038 0.079 0.038 0.117 0.038 0.196v5.462h-0.038zM136.044 53.163c0 0.038 0 0.038-0.038 0.079 0 0.038-0.038 0.038-0.079 0.038s-0.117 0.038-0.196 0.038c-0.079 0-0.155 0-0.272 0s-0.196 0-0.272 0c-0.079 0-0.155 0-0.196-0.038-0.038 0-0.079-0.038-0.117-0.038-0.038-0.038-0.038-0.038-0.038-0.079v-1.873c0-0.117 0-0.272 0-0.429s0.038-0.272 0.038-0.429c-0.079 0.117-0.155 0.272-0.234 0.389s-0.196 0.272-0.272 0.389l-1.444 1.949c-0.038 0.038-0.038 0.079-0.079 0.079-0.038 0.038-0.038 0.038-0.079 0.038s-0.079 0.038-0.155 0.038c-0.079 0-0.155 0-0.234 0-0.117 0-0.196 0-0.272 0s-0.117 0-0.155-0.038c-0.038 0-0.079-0.038-0.079-0.038 0-0.038-0.038-0.038-0.038-0.079v-4.252c0-0.038 0-0.038 0.038-0.079 0-0.038 0.038-0.038 0.079-0.079 0.038 0 0.117-0.038 0.196-0.038s0.155 0 0.272 0c0.234 0 0.389 0 0.468 0.038s0.155 0.079 0.155 0.155v1.873c0 0.117 0 0.272 0 0.389 0 0.155-0.038 0.272-0.038 0.389 0.079-0.117 0.155-0.234 0.234-0.389 0.079-0.117 0.155-0.234 0.234-0.351l1.444-1.949c0.038-0.038 0.038-0.079 0.079-0.079 0.038-0.038 0.079-0.038 0.117-0.038s0.079-0.038 0.155-0.038c0.079 0 0.155 0 0.234 0 0.117 0 0.196 0 0.272 0s0.117 0 0.155 0.038c0.038 0 0.079 0.038 0.079 0.079s0.038 0.038 0.038 0.079v4.252zM141.192 53.201c0 0.038 0 0.038-0.038 0.079 0 0-0.038 0.038-0.079 0.038s-0.117 0-0.196 0.038c-0.079 0-0.155 0-0.272 0s-0.234 0-0.313 0c-0.079 0-0.155 0-0.196-0.038-0.038 0-0.079-0.038-0.117-0.038-0.038-0.038-0.038-0.038-0.038-0.079l-0.389-1.014c-0.038-0.117-0.117-0.234-0.155-0.351-0.038-0.079-0.117-0.155-0.196-0.234-0.079-0.038-0.155-0.079-0.234-0.117s-0.196-0.038-0.313-0.038h-0.234v1.716c0 0.038 0 0.038-0.038 0.079s-0.038 0.038-0.117 0.038c-0.038 0-0.117 0.038-0.196 0.038s-0.155 0-0.272 0c-0.117 0-0.196 0-0.272 0s-0.155-0.038-0.196-0.038c-0.038 0-0.079-0.038-0.117-0.038-0.038-0.038-0.038-0.038-0.038-0.079v-4.29c0-0.038 0-0.038 0.038-0.079s0.038-0.038 0.117-0.038c0.038 0 0.117-0.038 0.196-0.038s0.155 0 0.272 0c0.117 0 0.196 0 0.272 0s0.155 0 0.196 0.038c0.038 0 0.079 0.038 0.117 0.038 0.038 0.038 0.038 0.038 0.038 0.079v1.639h0.234c0.117 0 0.196 0 0.272-0.038s0.155-0.079 0.234-0.117c0.079-0.038 0.117-0.117 0.196-0.234 0.038-0.079 0.117-0.196 0.155-0.351l0.351-0.897c0-0.038 0.038-0.038 0.038-0.079 0.038-0.038 0.038-0.038 0.117-0.038 0.038 0 0.117-0.038 0.196-0.038s0.196 0 0.313 0c0.117 0 0.196 0 0.272 0s0.117 0 0.155 0.038c0.038 0 0.079 0.038 0.079 0.038s0.038 0.038 0.038 0.079c0 0.038 0 0.079 0 0.117s-0.038 0.117-0.079 0.196l-0.351 0.818c-0.079 0.155-0.117 0.313-0.196 0.429s-0.155 0.196-0.234 0.272c-0.079 0.079-0.155 0.117-0.234 0.155s-0.155 0.079-0.234 0.117v0c0.079 0.038 0.196 0.079 0.272 0.117s0.155 0.117 0.234 0.196c0.079 0.079 0.155 0.155 0.234 0.272s0.155 0.234 0.196 0.389l0.429 0.935c0 0.038 0.038 0.079 0.038 0.117s0 0.038 0.038 0.079c0 0.038 0 0.038 0 0.079 0 0 0 0 0 0.038v0zM146.263 50.98c0 0.389-0.038 0.702-0.117 1.014s-0.196 0.546-0.351 0.78c-0.155 0.196-0.351 0.389-0.585 0.508s-0.508 0.155-0.78 0.155c-0.117 0-0.234 0-0.351-0.038s-0.196-0.079-0.313-0.117c-0.079-0.038-0.196-0.117-0.272-0.196s-0.196-0.155-0.313-0.272v1.99c0 0.038 0 0.079-0.038 0.079 0 0.038-0.038 0.038-0.079 0.079-0.038 0-0.117 0.038-0.196 0.038s-0.155 0-0.272 0c-0.117 0-0.196 0-0.272 0s-0.117-0.038-0.196-0.038c-0.038 0-0.079-0.038-0.079-0.079s-0.038-0.038-0.038-0.079v-5.929c0-0.038 0-0.038 0.038-0.079 0-0.038 0.038-0.038 0.079-0.079 0.038 0 0.079-0.038 0.155-0.038s0.155 0 0.234 0c0.079 0 0.155 0 0.234 0s0.117 0.038 0.155 0.038c0.038 0 0.079 0.038 0.079 0.079s0.038 0.038 0.038 0.079v0.508c0.117-0.117 0.234-0.234 0.351-0.351 0.117-0.079 0.234-0.196 0.351-0.234 0.117-0.079 0.234-0.117 0.389-0.155 0.117-0.038 0.272-0.038 0.429-0.038 0.313 0 0.585 0.079 0.78 0.196 0.234 0.117 0.389 0.272 0.546 0.508 0.155 0.196 0.234 0.468 0.313 0.742 0.079 0.313 0.079 0.585 0.079 0.935v0zM145.015 51.056c0-0.196 0-0.351-0.038-0.508s-0.079-0.313-0.155-0.429c-0.079-0.117-0.155-0.234-0.272-0.313s-0.234-0.117-0.389-0.117c-0.079 0-0.155 0-0.234 0.038s-0.155 0.079-0.234 0.117c-0.079 0.038-0.155 0.117-0.234 0.196s-0.196 0.196-0.272 0.313v1.405c0.155 0.196 0.313 0.389 0.468 0.508s0.313 0.155 0.468 0.155c0.155 0 0.272-0.038 0.389-0.117s0.196-0.196 0.272-0.313c0.079-0.117 0.117-0.272 0.155-0.429 0.079-0.196 0.079-0.351 0.079-0.508v0zM151.489 50.98c0 0.351-0.038 0.702-0.155 0.976-0.079 0.313-0.234 0.546-0.429 0.78s-0.429 0.389-0.742 0.508c-0.272 0.117-0.625 0.155-1.014 0.155s-0.702-0.038-0.976-0.155c-0.272-0.117-0.508-0.272-0.702-0.468s-0.313-0.429-0.389-0.742c-0.079-0.272-0.117-0.625-0.117-1.014 0-0.351 0.038-0.702 0.155-0.976 0.079-0.313 0.234-0.546 0.429-0.78 0.196-0.196 0.429-0.389 0.742-0.508 0.272-0.117 0.625-0.155 1.014-0.155s0.702 0.038 0.976 0.155c0.272 0.117 0.508 0.272 0.702 0.468s0.313 0.429 0.389 0.742c0.079 0.313 0.117 0.625 0.117 1.014v0zM150.28 51.018c0-0.196 0-0.389-0.038-0.585s-0.079-0.313-0.155-0.468c-0.079-0.117-0.196-0.234-0.313-0.313s-0.313-0.117-0.508-0.117c-0.196 0-0.351 0.038-0.468 0.079-0.117 0.079-0.234 0.155-0.313 0.272s-0.155 0.272-0.196 0.468c-0.038 0.196-0.079 0.389-0.079 0.585s0 0.389 0.038 0.585c0.038 0.196 0.079 0.313 0.155 0.468 0.079 0.117 0.196 0.234 0.313 0.313s0.313 0.117 0.508 0.117c0.196 0 0.351-0.038 0.468-0.079 0.117-0.079 0.234-0.155 0.313-0.272s0.155-0.272 0.196-0.468c0.079-0.155 0.079-0.351 0.079-0.585v0zM156.56 53.125c0 0.038 0 0.038-0.038 0.079 0 0.038-0.038 0.038-0.079 0.079-0.038 0-0.117 0.038-0.196 0.038s-0.155 0-0.272 0c-0.117 0-0.234 0-0.313 0s-0.155-0.038-0.196-0.038c-0.038 0-0.079-0.038-0.079-0.079s-0.038-0.038-0.038-0.079v-1.677h-1.716v1.677c0 0.038 0 0.038-0.038 0.079 0 0.038-0.038 0.038-0.079 0.079-0.038 0-0.117 0.038-0.196 0.038s-0.155 0-0.272 0c-0.117 0-0.196 0-0.272 0s-0.117-0.038-0.196-0.038c-0.038 0-0.079-0.038-0.079-0.079s-0.038-0.038-0.038-0.079v-4.252c0-0.038 0-0.038 0.038-0.079 0-0.038 0.038-0.038 0.079-0.079 0.038 0 0.117-0.038 0.196-0.038s0.155 0 0.272 0c0.117 0 0.196 0 0.272 0s0.117 0.038 0.196 0.038c0.038 0 0.079 0.038 0.079 0.079 0.038 0.038 0.038 0.038 0.038 0.079v1.599h1.716v-1.599c0-0.038 0-0.038 0.038-0.079 0-0.038 0.038-0.038 0.079-0.079 0.038 0 0.117-0.038 0.196-0.038s0.155 0 0.313 0c0.117 0 0.196 0 0.272 0s0.155 0.038 0.196 0.038c0.038 0 0.079 0.038 0.079 0.079s0.038 0.038 0.038 0.079v4.252zM160.85 52.733c0 0.038-0.038 0.038-0.079 0.079 0 0-0.038 0.038-0.079 0.038s-0.079 0.038-0.155 0.038c-0.038 0-0.117 0-0.234 0s-0.196 0-0.272 0c-0.079 0-0.117-0.038-0.155-0.038-0.038-0.038-0.038-0.038-0.038-0.079s0-0.079 0.038-0.117l0.935-1.794-0.935-1.833c-0.038-0.038-0.038-0.079-0.038-0.117s0-0.079 0.038-0.079 0.079-0.038 0.155-0.038c0.079 0 0.155 0 0.272 0 0.079 0 0.155 0 0.234 0 0.038 0 0.117 0 0.155 0.038 0.038 0 0.079 0.038 0.079 0.038 0.038 0.038 0.038 0.038 0.038 0.079l1.052 1.716c0.038 0.079 0.079 0.117 0.038 0.196 0 0.079-0.038 0.155-0.079 0.234l-0.976 1.639zM158.939 52.655c0 0.038-0.038 0.038-0.079 0.079-0.038 0-0.038 0.038-0.079 0.038s-0.079 0-0.155 0.038c-0.038 0-0.117 0-0.234 0s-0.196 0-0.272 0c-0.079 0-0.117-0.038-0.155-0.038-0.038-0.038-0.038-0.038-0.038-0.079s0-0.079 0.038-0.117l0.897-1.677-0.976-1.756c-0.038-0.038-0.038-0.079-0.038-0.079 0-0.038 0.038-0.038 0.038-0.079 0.038 0 0.079-0.038 0.155-0.038s0.155 0 0.272 0c0.079 0 0.155 0 0.234 0 0.038 0 0.117 0 0.155 0.038 0.038 0 0.079 0.038 0.079 0.038 0.038 0 0.038 0.038 0.079 0.079l1.052 1.639c0.038 0.079 0.079 0.117 0.038 0.196 0 0.079-0.038 0.155-0.079 0.234l-0.935 1.482z"></path>
</svg>
